<?xml version="1.0" encoding="UTF-8"?>
<svg xmlns="http://www.w3.org/2000/svg" version="1.1" width="300" height="300" viewBox="0 0 300 300"><rect x="0" y="0" width="300" height="300" fill="#ffffff"/><g transform="scale(8.108)"><g transform="translate(0,0)"><path fill-rule="evenodd" d="M9 0L9 1L8 1L8 7L9 7L9 3L10 3L10 9L9 9L9 8L5 8L5 9L9 9L9 10L2 10L2 9L3 9L3 8L2 8L2 9L1 9L1 11L0 11L0 14L1 14L1 16L2 16L2 14L3 14L3 13L4 13L4 11L7 11L7 12L6 12L6 13L5 13L5 14L6 14L6 15L8 15L8 17L9 17L9 19L8 19L8 21L7 21L7 20L6 20L6 19L7 19L7 18L6 18L6 17L7 17L7 16L6 16L6 17L4 17L4 16L5 16L5 15L3 15L3 17L1 17L1 18L0 18L0 19L1 19L1 18L2 18L2 19L4 19L4 21L5 21L5 22L3 22L3 21L2 21L2 23L1 23L1 22L0 22L0 25L1 25L1 26L0 26L0 27L2 27L2 28L0 28L0 29L2 29L2 28L3 28L3 29L7 29L7 28L5 28L5 27L7 27L7 26L10 26L10 25L11 25L11 26L15 26L15 28L14 28L14 27L13 27L13 28L14 28L14 29L13 29L13 30L14 30L14 29L15 29L15 32L16 32L16 33L14 33L14 32L13 32L13 31L12 31L12 29L11 29L11 30L10 30L10 29L9 29L9 28L12 28L12 27L8 27L8 32L9 32L9 34L8 34L8 35L9 35L9 36L10 36L10 37L13 37L13 36L15 36L15 35L14 35L14 34L16 34L16 35L17 35L17 36L16 36L16 37L17 37L17 36L19 36L19 35L20 35L20 36L21 36L21 34L22 34L22 36L23 36L23 37L24 37L24 36L23 36L23 35L24 35L24 34L23 34L23 33L24 33L24 32L23 32L23 31L27 31L27 32L26 32L26 33L25 33L25 35L26 35L26 36L27 36L27 37L29 37L29 35L30 35L30 34L28 34L28 33L32 33L32 34L31 34L31 35L32 35L32 36L30 36L30 37L33 37L33 35L34 35L34 34L35 34L35 35L37 35L37 28L35 28L35 29L36 29L36 30L34 30L34 27L37 27L37 25L36 25L36 23L37 23L37 17L36 17L36 19L35 19L35 18L31 18L31 17L32 17L32 16L34 16L34 15L36 15L36 16L37 16L37 13L34 13L34 11L35 11L35 12L37 12L37 9L36 9L36 8L31 8L31 9L30 9L30 8L29 8L29 2L27 2L27 1L26 1L26 0L25 0L25 5L24 5L24 3L23 3L23 2L22 2L22 1L23 1L23 0L19 0L19 1L18 1L18 0L14 0L14 1L15 1L15 2L13 2L13 1L12 1L12 0L11 0L11 1L12 1L12 5L11 5L11 2L10 2L10 0ZM28 0L28 1L29 1L29 0ZM17 1L17 2L16 2L16 3L17 3L17 5L18 5L18 3L19 3L19 5L20 5L20 6L19 6L19 8L18 8L18 9L17 9L17 7L18 7L18 6L17 6L17 7L16 7L16 5L13 5L13 7L12 7L12 6L11 6L11 9L10 9L10 10L9 10L9 11L10 11L10 10L12 10L12 8L13 8L13 7L14 7L14 6L15 6L15 7L16 7L16 8L15 8L15 10L14 10L14 12L13 12L13 14L14 14L14 12L16 12L16 13L15 13L15 15L17 15L17 14L18 14L18 16L16 16L16 17L14 17L14 15L11 15L11 13L12 13L12 12L10 12L10 13L9 13L9 14L8 14L8 15L11 15L11 16L9 16L9 17L10 17L10 19L9 19L9 20L10 20L10 23L11 23L11 25L15 25L15 24L16 24L16 26L17 26L17 27L16 27L16 30L17 30L17 27L18 27L18 30L19 30L19 31L16 31L16 32L17 32L17 34L18 34L18 35L19 35L19 34L21 34L21 33L18 33L18 32L21 32L21 31L20 31L20 29L21 29L21 28L19 28L19 27L20 27L20 26L21 26L21 27L24 27L24 25L23 25L23 22L24 22L24 23L26 23L26 25L25 25L25 30L26 30L26 28L27 28L27 27L26 27L26 26L28 26L28 27L29 27L29 28L30 28L30 27L31 27L31 26L30 26L30 23L31 23L31 22L29 22L29 21L30 21L30 19L28 19L28 20L27 20L27 21L26 21L26 19L25 19L25 18L26 18L26 16L27 16L27 17L28 17L28 18L29 18L29 16L30 16L30 15L33 15L33 14L34 14L34 13L33 13L33 11L32 11L32 10L33 10L33 9L32 9L32 10L31 10L31 11L29 11L29 12L32 12L32 14L29 14L29 16L27 16L27 15L25 15L25 14L26 14L26 11L25 11L25 10L26 10L26 9L25 9L25 8L26 8L26 6L27 6L27 7L28 7L28 4L27 4L27 5L25 5L25 8L24 8L24 5L23 5L23 4L22 4L22 5L21 5L21 4L20 4L20 1L19 1L19 2L18 2L18 1ZM17 2L17 3L18 3L18 2ZM26 2L26 3L27 3L27 2ZM13 3L13 4L14 4L14 3ZM20 6L20 8L19 8L19 9L20 9L20 10L21 10L21 12L20 12L20 14L19 14L19 13L18 13L18 12L19 12L19 10L16 10L16 11L18 11L18 12L17 12L17 13L18 13L18 14L19 14L19 17L18 17L18 19L16 19L16 18L14 18L14 17L12 17L12 16L11 16L11 19L10 19L10 20L11 20L11 23L12 23L12 24L13 24L13 23L12 23L12 22L13 22L13 21L15 21L15 20L16 20L16 21L17 21L17 22L15 22L15 23L16 23L16 24L17 24L17 26L18 26L18 27L19 27L19 26L20 26L20 25L18 25L18 23L19 23L19 24L21 24L21 26L23 26L23 25L22 25L22 24L21 24L21 23L19 23L19 22L21 22L21 21L19 21L19 20L22 20L22 21L24 21L24 20L25 20L25 19L24 19L24 18L25 18L25 17L23 17L23 16L24 16L24 14L25 14L25 13L22 13L22 14L21 14L21 12L23 12L23 11L24 11L24 12L25 12L25 11L24 11L24 9L23 9L23 6L22 6L22 8L21 8L21 6ZM20 8L20 9L21 9L21 10L22 10L22 9L21 9L21 8ZM27 8L27 11L28 11L28 8ZM29 9L29 10L30 10L30 9ZM35 10L35 11L36 11L36 10ZM1 11L1 14L2 14L2 13L3 13L3 12L2 12L2 11ZM27 12L27 13L28 13L28 12ZM6 13L6 14L7 14L7 13ZM20 14L20 18L19 18L19 19L20 19L20 18L21 18L21 19L22 19L22 20L24 20L24 19L23 19L23 18L22 18L22 16L23 16L23 15L21 15L21 14ZM3 17L3 18L4 18L4 17ZM11 19L11 20L12 20L12 19ZM13 19L13 20L15 20L15 19ZM31 19L31 21L32 21L32 22L33 22L33 23L32 23L32 26L33 26L33 27L32 27L32 28L33 28L33 27L34 27L34 26L36 26L36 25L35 25L35 23L36 23L36 20L35 20L35 19ZM0 20L0 21L1 21L1 20ZM28 20L28 21L27 21L27 24L28 24L28 25L29 25L29 23L28 23L28 21L29 21L29 20ZM33 20L33 21L34 21L34 20ZM6 21L6 22L7 22L7 23L4 23L4 24L3 24L3 25L4 25L4 26L2 26L2 27L5 27L5 24L7 24L7 23L8 23L8 22L7 22L7 21ZM25 21L25 22L26 22L26 21ZM34 22L34 23L33 23L33 24L34 24L34 23L35 23L35 22ZM8 24L8 25L10 25L10 24ZM6 25L6 26L7 26L7 25ZM29 26L29 27L30 27L30 26ZM22 28L22 30L23 30L23 29L24 29L24 28ZM27 29L27 31L28 31L28 29ZM29 29L29 32L32 32L32 29ZM9 30L9 32L10 32L10 30ZM30 30L30 31L31 31L31 30ZM34 31L34 32L33 32L33 33L35 33L35 34L36 34L36 32L35 32L35 31ZM11 32L11 34L12 34L12 33L13 33L13 34L14 34L14 33L13 33L13 32ZM22 32L22 33L23 33L23 32ZM9 34L9 35L10 35L10 34ZM26 34L26 35L28 35L28 34ZM11 35L11 36L13 36L13 35ZM36 36L36 37L37 37L37 36ZM0 0L0 7L7 7L7 0ZM1 1L1 6L6 6L6 1ZM2 2L2 5L5 5L5 2ZM30 0L30 7L37 7L37 0ZM31 1L31 6L36 6L36 1ZM32 2L32 5L35 5L35 2ZM0 30L0 37L7 37L7 30ZM1 31L1 36L6 36L6 31ZM2 32L2 35L5 35L5 32Z" fill="#000000"/></g></g></svg>
