<?xml version="1.0" encoding="UTF-8"?>
<svg xmlns="http://www.w3.org/2000/svg" version="1.1" width="300" height="300" viewBox="0 0 300 300"><rect x="0" y="0" width="300" height="300" fill="#ffffff"/><g transform="scale(8.108)"><g transform="translate(0,0)"><path fill-rule="evenodd" d="M9 0L9 1L8 1L8 7L9 7L9 1L10 1L10 0ZM14 0L14 1L12 1L12 2L11 2L11 3L12 3L12 2L13 2L13 3L14 3L14 4L16 4L16 7L15 7L15 5L14 5L14 7L15 7L15 8L16 8L16 10L17 10L17 9L18 9L18 8L20 8L20 7L21 7L21 8L22 8L22 9L20 9L20 10L21 10L21 11L22 11L22 12L24 12L24 13L22 13L22 14L21 14L21 12L20 12L20 15L19 15L19 14L17 14L17 15L16 15L16 13L19 13L19 12L18 12L18 11L15 11L15 9L14 9L14 11L15 11L15 13L14 13L14 12L13 12L13 5L12 5L12 7L11 7L11 4L10 4L10 9L11 9L11 8L12 8L12 10L11 10L11 12L10 12L10 10L5 10L5 9L9 9L9 8L5 8L5 9L3 9L3 8L2 8L2 9L1 9L1 10L4 10L4 12L3 12L3 11L1 11L1 12L3 12L3 13L2 13L2 14L1 14L1 13L0 13L0 14L1 14L1 16L2 16L2 14L3 14L3 17L0 17L0 18L1 18L1 20L2 20L2 19L5 19L5 20L3 20L3 21L7 21L7 22L4 22L4 23L1 23L1 22L0 22L0 24L1 24L1 25L2 25L2 24L3 24L3 26L0 26L0 27L7 27L7 26L9 26L9 27L8 27L8 28L9 28L9 27L10 27L10 25L11 25L11 26L13 26L13 27L15 27L15 26L16 26L16 25L18 25L18 26L17 26L17 27L16 27L16 29L15 29L15 28L13 28L13 30L16 30L16 31L15 31L15 32L16 32L16 33L14 33L14 32L13 32L13 31L12 31L12 32L13 32L13 34L14 34L14 35L13 35L13 37L14 37L14 35L15 35L15 34L16 34L16 35L17 35L17 36L16 36L16 37L18 37L18 36L19 36L19 35L17 35L17 34L19 34L19 33L20 33L20 32L21 32L21 35L20 35L20 37L21 37L21 35L22 35L22 37L23 37L23 36L24 36L24 37L25 37L25 35L26 35L26 36L27 36L27 37L29 37L29 35L30 35L30 34L29 34L29 35L28 35L28 33L32 33L32 34L31 34L31 35L32 35L32 36L30 36L30 37L33 37L33 35L34 35L34 34L35 34L35 35L37 35L37 28L35 28L35 29L36 29L36 30L34 30L34 27L37 27L37 24L36 24L36 23L37 23L37 20L36 20L36 21L35 21L35 22L34 22L34 23L33 23L33 22L32 22L32 21L31 21L31 19L35 19L35 18L31 18L31 17L32 17L32 16L34 16L34 15L36 15L36 16L37 16L37 13L34 13L34 10L33 10L33 9L35 9L35 10L36 10L36 11L35 11L35 12L37 12L37 9L36 9L36 8L31 8L31 10L29 10L29 11L31 11L31 12L27 12L27 11L28 11L28 10L25 10L25 11L22 11L22 10L23 10L23 8L24 8L24 9L26 9L26 7L27 7L27 8L29 8L29 9L30 9L30 8L29 8L29 2L27 2L27 3L26 3L26 2L25 2L25 3L23 3L23 0L20 0L20 1L21 1L21 2L20 2L20 3L22 3L22 4L21 4L21 5L20 5L20 7L19 7L19 5L17 5L17 3L18 3L18 4L19 4L19 3L18 3L18 1L17 1L17 0ZM28 0L28 1L29 1L29 0ZM14 1L14 3L15 3L15 1ZM16 2L16 3L17 3L17 2ZM23 4L23 5L26 5L26 4ZM27 4L27 7L28 7L28 4ZM17 6L17 7L16 7L16 8L17 8L17 7L18 7L18 6ZM21 6L21 7L22 7L22 6ZM23 6L23 7L24 7L24 8L25 8L25 7L26 7L26 6L25 6L25 7L24 7L24 6ZM32 10L32 11L33 11L33 10ZM5 11L5 14L4 14L4 15L5 15L5 16L4 16L4 17L3 17L3 18L7 18L7 19L6 19L6 20L7 20L7 19L8 19L8 20L9 20L9 18L10 18L10 19L11 19L11 18L12 18L12 17L14 17L14 18L13 18L13 19L12 19L12 21L11 21L11 22L10 22L10 23L12 23L12 22L13 22L13 24L12 24L12 25L13 25L13 26L14 26L14 25L16 25L16 24L17 24L17 22L15 22L15 24L14 24L14 22L13 22L13 20L14 20L14 21L17 21L17 20L15 20L15 18L16 18L16 19L17 19L17 18L18 18L18 20L19 20L19 17L17 17L17 16L19 16L19 15L17 15L17 16L16 16L16 15L15 15L15 16L16 16L16 17L14 17L14 15L12 15L12 14L14 14L14 13L12 13L12 12L11 12L11 13L12 13L12 14L11 14L11 15L12 15L12 17L11 17L11 18L10 18L10 17L8 17L8 16L9 16L9 15L8 15L8 14L10 14L10 13L6 13L6 12L7 12L7 11ZM25 11L25 13L24 13L24 14L23 14L23 15L21 15L21 16L20 16L20 17L21 17L21 18L22 18L22 20L21 20L21 21L22 21L22 22L23 22L23 21L22 21L22 20L24 20L24 24L23 24L23 23L22 23L22 24L20 24L20 23L21 23L21 22L19 22L19 21L18 21L18 22L19 22L19 23L18 23L18 25L19 25L19 24L20 24L20 26L18 26L18 27L17 27L17 29L18 29L18 30L17 30L17 31L18 31L18 30L20 30L20 31L21 31L21 28L22 28L22 29L23 29L23 28L25 28L25 30L24 30L24 31L23 31L23 32L22 32L22 33L23 33L23 35L24 35L24 31L25 31L25 33L26 33L26 32L27 32L27 31L28 31L28 30L27 30L27 31L25 31L25 30L26 30L26 28L27 28L27 29L28 29L28 28L27 28L27 27L28 27L28 24L27 24L27 27L26 27L26 25L25 25L25 24L26 24L26 23L25 23L25 22L27 22L27 21L28 21L28 23L29 23L29 22L30 22L30 20L29 20L29 19L28 19L28 20L27 20L27 19L25 19L25 18L24 18L24 19L23 19L23 18L22 18L22 16L23 16L23 15L24 15L24 17L26 17L26 16L27 16L27 15L24 15L24 14L26 14L26 11ZM31 12L31 13L32 13L32 14L29 14L29 15L28 15L28 18L29 18L29 16L30 16L30 15L33 15L33 14L34 14L34 13L33 13L33 12ZM5 14L5 15L7 15L7 16L5 16L5 17L7 17L7 16L8 16L8 15L7 15L7 14ZM36 17L36 19L37 19L37 17ZM24 19L24 20L25 20L25 19ZM26 20L26 21L27 21L27 20ZM28 20L28 21L29 21L29 20ZM33 20L33 21L34 21L34 20ZM8 21L8 23L4 23L4 26L5 26L5 24L8 24L8 25L10 25L10 24L8 24L8 23L9 23L9 21ZM35 22L35 23L34 23L34 24L33 24L33 23L32 23L32 24L33 24L33 25L30 25L30 27L29 27L29 28L30 28L30 27L31 27L31 28L32 28L32 27L31 27L31 26L33 26L33 27L34 27L34 26L36 26L36 24L35 24L35 23L36 23L36 22ZM30 23L30 24L31 24L31 23ZM13 24L13 25L14 25L14 24ZM22 24L22 27L24 27L24 26L23 26L23 24ZM6 25L6 26L7 26L7 25ZM20 26L20 27L19 27L19 28L18 28L18 29L19 29L19 28L21 28L21 26ZM11 27L11 28L10 28L10 32L9 32L9 29L8 29L8 32L9 32L9 33L11 33L11 30L12 30L12 29L11 29L11 28L12 28L12 27ZM0 28L0 29L4 29L4 28ZM5 28L5 29L7 29L7 28ZM29 29L29 32L32 32L32 29ZM30 30L30 31L31 31L31 30ZM34 31L34 32L33 32L33 33L35 33L35 34L36 34L36 32L35 32L35 31ZM17 32L17 33L19 33L19 32ZM8 34L8 35L9 35L9 36L11 36L11 37L12 37L12 34L11 34L11 35L9 35L9 34ZM26 34L26 35L27 35L27 34ZM36 36L36 37L37 37L37 36ZM0 0L0 7L7 7L7 0ZM1 1L1 6L6 6L6 1ZM2 2L2 5L5 5L5 2ZM30 0L30 7L37 7L37 0ZM31 1L31 6L36 6L36 1ZM32 2L32 5L35 5L35 2ZM0 30L0 37L7 37L7 30ZM1 31L1 36L6 36L6 31ZM2 32L2 35L5 35L5 32Z" fill="#000000"/></g></g></svg>
